# xmcd CD database file
#
# Track frame offsets:
#	183
#	13318
#	26803
#	39783
#	56193
#	71523
#	88578
#	104793
#	117373
#	128668
#
# Disc length: 1914 seconds
#
# Revision: 0
# Processed by: cddbd v1.5.1PL2 Copyright (c) Steve Scherf et al.
# Submitted via: CDex 1.51
#
DISCID=8a07780a
DTITLE=George Hug and ursula Hotz - In love
DYEAR=1900
DGENRE=Country
TTITLE0=Today I Startet Loving You Again
TTITLE1=Rising AG
TTITLE2=Send Me Some loving
TTITLE3=Making Belive
TTITLE4=I Dont Want To Marry You
TTITLE5=The Wilde Side Of Life
TTITLE6=Waltz Across Texas
TTITLE7=Lets Have A Heart To Heart Talk
TTITLE8=Roll In My Sweet Baby's Arms
TTITLE9=Making Plans
EXTD=
EXTT0=
EXTT1=
EXTT2=
EXTT3=
EXTT4=
EXTT5=
EXTT6=
EXTT7=
EXTT8=
EXTT9=
PLAYORDER=
